<mxfile host="app.diagrams.net" agent="Mozilla/5.0 (Windows NT 10.0; Win64; x64) AppleWebKit/537.36 (KHTML, like Gecko) Chrome/127.0.0.0 Safari/537.36" version="24.7.6" pages="3">
  <diagram name="Page-1" id="CPQKaQ21vzjrYLE9x-X7">
    <mxGraphModel dx="1290" dy="618" grid="1" gridSize="10" guides="1" tooltips="1" connect="1" arrows="1" fold="1" page="1" pageScale="1" pageWidth="850" pageHeight="1100" math="0" shadow="0">
      <root>
        <mxCell id="0" />
        <mxCell id="1" parent="0" />
        <mxCell id="3qgU8LnUS7B_zHF55kds-11" style="edgeStyle=orthogonalEdgeStyle;rounded=0;orthogonalLoop=1;jettySize=auto;html=1;exitX=0.5;exitY=1;exitDx=0;exitDy=0;exitPerimeter=0;entryX=0.5;entryY=0;entryDx=0;entryDy=0;" parent="1" source="3qgU8LnUS7B_zHF55kds-3" target="3qgU8LnUS7B_zHF55kds-4" edge="1">
          <mxGeometry relative="1" as="geometry" />
        </mxCell>
        <mxCell id="3qgU8LnUS7B_zHF55kds-3" value="Start" style="strokeWidth=2;html=1;shape=mxgraph.flowchart.start_1;whiteSpace=wrap;" parent="1" vertex="1">
          <mxGeometry x="40" y="40" width="100" height="60" as="geometry" />
        </mxCell>
        <mxCell id="3qgU8LnUS7B_zHF55kds-12" style="edgeStyle=orthogonalEdgeStyle;rounded=0;orthogonalLoop=1;jettySize=auto;html=1;exitX=1;exitY=0.5;exitDx=0;exitDy=0;entryX=0;entryY=0.5;entryDx=0;entryDy=0;" parent="1" source="3qgU8LnUS7B_zHF55kds-4" target="3qgU8LnUS7B_zHF55kds-5" edge="1">
          <mxGeometry relative="1" as="geometry" />
        </mxCell>
        <mxCell id="3qgU8LnUS7B_zHF55kds-4" value="Micro Climate data&lt;div&gt;(xlsx)&lt;/div&gt;" style="shape=parallelogram;html=1;strokeWidth=2;perimeter=parallelogramPerimeter;whiteSpace=wrap;rounded=1;arcSize=12;size=0.23;" parent="1" vertex="1">
          <mxGeometry x="10" y="130" width="160" height="60" as="geometry" />
        </mxCell>
        <mxCell id="3qgU8LnUS7B_zHF55kds-20" style="edgeStyle=orthogonalEdgeStyle;rounded=0;orthogonalLoop=1;jettySize=auto;html=1;exitX=1;exitY=0.5;exitDx=0;exitDy=0;entryX=0;entryY=0.5;entryDx=0;entryDy=0;" parent="1" source="3qgU8LnUS7B_zHF55kds-5" target="3qgU8LnUS7B_zHF55kds-6" edge="1">
          <mxGeometry relative="1" as="geometry" />
        </mxCell>
        <mxCell id="3qgU8LnUS7B_zHF55kds-5" value="Extracting xlsx data using python" style="rounded=1;whiteSpace=wrap;html=1;absoluteArcSize=1;arcSize=14;strokeWidth=2;" parent="1" vertex="1">
          <mxGeometry x="220" y="120" width="130" height="80" as="geometry" />
        </mxCell>
        <mxCell id="3qgU8LnUS7B_zHF55kds-21" style="edgeStyle=orthogonalEdgeStyle;rounded=0;orthogonalLoop=1;jettySize=auto;html=1;exitX=1;exitY=0.5;exitDx=0;exitDy=0;entryX=0;entryY=0.5;entryDx=0;entryDy=0;" parent="1" source="3qgU8LnUS7B_zHF55kds-6" target="3qgU8LnUS7B_zHF55kds-8" edge="1">
          <mxGeometry relative="1" as="geometry" />
        </mxCell>
        <mxCell id="3qgU8LnUS7B_zHF55kds-6" value="Replacing (NaN) values with predicted Neural Network values" style="rounded=1;whiteSpace=wrap;html=1;absoluteArcSize=1;arcSize=14;strokeWidth=2;" parent="1" vertex="1">
          <mxGeometry x="425" y="120" width="145" height="80" as="geometry" />
        </mxCell>
        <mxCell id="3qgU8LnUS7B_zHF55kds-22" style="edgeStyle=orthogonalEdgeStyle;rounded=0;orthogonalLoop=1;jettySize=auto;html=1;exitX=0.5;exitY=1;exitDx=0;exitDy=0;entryX=0.5;entryY=0;entryDx=0;entryDy=0;" parent="1" source="3qgU8LnUS7B_zHF55kds-8" target="3qgU8LnUS7B_zHF55kds-9" edge="1">
          <mxGeometry relative="1" as="geometry" />
        </mxCell>
        <mxCell id="3qgU8LnUS7B_zHF55kds-8" value="Applying Normal distribution with 2 sigma to identify the anomalies" style="rounded=1;whiteSpace=wrap;html=1;absoluteArcSize=1;arcSize=14;strokeWidth=2;" parent="1" vertex="1">
          <mxGeometry x="630" y="120" width="145" height="80" as="geometry" />
        </mxCell>
        <mxCell id="3qgU8LnUS7B_zHF55kds-9" value="Replacing Anomalies with predicted MPL model" style="rounded=1;whiteSpace=wrap;html=1;absoluteArcSize=1;arcSize=14;strokeWidth=2;" parent="1" vertex="1">
          <mxGeometry x="630" y="230" width="145" height="80" as="geometry" />
        </mxCell>
        <mxCell id="3qgU8LnUS7B_zHF55kds-10" value="End" style="strokeWidth=2;html=1;shape=mxgraph.flowchart.terminator;whiteSpace=wrap;" parent="1" vertex="1">
          <mxGeometry x="425" y="270" width="100" height="60" as="geometry" />
        </mxCell>
        <mxCell id="3qgU8LnUS7B_zHF55kds-13" value="Finally, the cleaned data is stored in a CSV&lt;div&gt;(For Power BI)&lt;/div&gt;" style="strokeWidth=2;html=1;shape=mxgraph.flowchart.stored_data;whiteSpace=wrap;" parent="1" vertex="1">
          <mxGeometry x="617.5" y="440" width="170" height="60" as="geometry" />
        </mxCell>
        <mxCell id="3qgU8LnUS7B_zHF55kds-14" value="" style="verticalLabelPosition=bottom;verticalAlign=top;html=1;shape=mxgraph.flowchart.parallel_mode;pointerEvents=1" parent="1" vertex="1">
          <mxGeometry x="655" y="360" width="95" height="40" as="geometry" />
        </mxCell>
        <mxCell id="3qgU8LnUS7B_zHF55kds-16" style="edgeStyle=orthogonalEdgeStyle;rounded=0;orthogonalLoop=1;jettySize=auto;html=1;exitX=0.5;exitY=1;exitDx=0;exitDy=0;entryX=0.5;entryY=0;entryDx=0;entryDy=0;entryPerimeter=0;" parent="1" source="3qgU8LnUS7B_zHF55kds-9" target="3qgU8LnUS7B_zHF55kds-14" edge="1">
          <mxGeometry relative="1" as="geometry" />
        </mxCell>
        <mxCell id="3qgU8LnUS7B_zHF55kds-17" style="edgeStyle=orthogonalEdgeStyle;rounded=0;orthogonalLoop=1;jettySize=auto;html=1;exitX=0.5;exitY=1;exitDx=0;exitDy=0;exitPerimeter=0;entryX=0.5;entryY=0.167;entryDx=0;entryDy=0;entryPerimeter=0;" parent="1" source="3qgU8LnUS7B_zHF55kds-14" target="3qgU8LnUS7B_zHF55kds-13" edge="1">
          <mxGeometry relative="1" as="geometry" />
        </mxCell>
        <mxCell id="3qgU8LnUS7B_zHF55kds-19" style="edgeStyle=orthogonalEdgeStyle;rounded=0;orthogonalLoop=1;jettySize=auto;html=1;exitX=0;exitY=0.5;exitDx=0;exitDy=0;entryX=1;entryY=0.5;entryDx=0;entryDy=0;entryPerimeter=0;" parent="1" source="3qgU8LnUS7B_zHF55kds-9" target="3qgU8LnUS7B_zHF55kds-10" edge="1">
          <mxGeometry relative="1" as="geometry" />
        </mxCell>
        <mxCell id="3qgU8LnUS7B_zHF55kds-25" style="edgeStyle=orthogonalEdgeStyle;rounded=0;orthogonalLoop=1;jettySize=auto;html=1;exitX=1;exitY=0.5;exitDx=0;exitDy=0;" parent="1" source="3qgU8LnUS7B_zHF55kds-24" edge="1">
          <mxGeometry relative="1" as="geometry">
            <mxPoint x="380" y="160" as="targetPoint" />
          </mxGeometry>
        </mxCell>
        <mxCell id="3qgU8LnUS7B_zHF55kds-24" value="Generating a heatmap video" style="rounded=1;whiteSpace=wrap;html=1;absoluteArcSize=1;arcSize=14;strokeWidth=2;" parent="1" vertex="1">
          <mxGeometry x="170" y="250" width="180" height="80" as="geometry" />
        </mxCell>
      </root>
    </mxGraphModel>
  </diagram>
  <diagram id="bIfmprbvg096yZKr9O6m" name="Page-2">
    <mxGraphModel dx="1290" dy="618" grid="1" gridSize="10" guides="1" tooltips="1" connect="1" arrows="1" fold="1" page="1" pageScale="1" pageWidth="850" pageHeight="1100" math="0" shadow="0">
      <root>
        <mxCell id="0" />
        <mxCell id="1" parent="0" />
        <mxCell id="YXyIy0PoRjPtZu4Xh4XD-9" style="edgeStyle=orthogonalEdgeStyle;rounded=0;orthogonalLoop=1;jettySize=auto;html=1;exitX=0.5;exitY=1;exitDx=0;exitDy=0;exitPerimeter=0;entryX=0.5;entryY=0;entryDx=0;entryDy=0;" parent="1" source="6A8pYVgBzi6IYwOFSxFW-1" target="YXyIy0PoRjPtZu4Xh4XD-1" edge="1">
          <mxGeometry relative="1" as="geometry" />
        </mxCell>
        <mxCell id="6A8pYVgBzi6IYwOFSxFW-1" value="Start" style="strokeWidth=2;html=1;shape=mxgraph.flowchart.start_1;whiteSpace=wrap;" parent="1" vertex="1">
          <mxGeometry x="60" y="70" width="100" height="60" as="geometry" />
        </mxCell>
        <mxCell id="YXyIy0PoRjPtZu4Xh4XD-10" style="edgeStyle=orthogonalEdgeStyle;rounded=0;orthogonalLoop=1;jettySize=auto;html=1;exitX=1;exitY=0.5;exitDx=0;exitDy=0;entryX=0;entryY=0.5;entryDx=0;entryDy=0;" parent="1" source="YXyIy0PoRjPtZu4Xh4XD-1" target="YXyIy0PoRjPtZu4Xh4XD-2" edge="1">
          <mxGeometry relative="1" as="geometry" />
        </mxCell>
        <mxCell id="YXyIy0PoRjPtZu4Xh4XD-1" value="Heatmap video" style="rounded=1;whiteSpace=wrap;html=1;absoluteArcSize=1;arcSize=14;strokeWidth=2;" parent="1" vertex="1">
          <mxGeometry x="20" y="180" width="180" height="80" as="geometry" />
        </mxCell>
        <mxCell id="YXyIy0PoRjPtZu4Xh4XD-11" style="edgeStyle=orthogonalEdgeStyle;rounded=0;orthogonalLoop=1;jettySize=auto;html=1;exitX=1;exitY=0.5;exitDx=0;exitDy=0;entryX=0;entryY=0.5;entryDx=0;entryDy=0;" parent="1" source="YXyIy0PoRjPtZu4Xh4XD-2" target="YXyIy0PoRjPtZu4Xh4XD-4" edge="1">
          <mxGeometry relative="1" as="geometry" />
        </mxCell>
        <mxCell id="YXyIy0PoRjPtZu4Xh4XD-2" value="Generating FFT Magnitude spectrum" style="rounded=1;whiteSpace=wrap;html=1;absoluteArcSize=1;arcSize=14;strokeWidth=2;" parent="1" vertex="1">
          <mxGeometry x="245" y="180" width="180" height="80" as="geometry" />
        </mxCell>
        <mxCell id="YXyIy0PoRjPtZu4Xh4XD-12" style="edgeStyle=orthogonalEdgeStyle;rounded=0;orthogonalLoop=1;jettySize=auto;html=1;exitX=1;exitY=0.5;exitDx=0;exitDy=0;entryX=0;entryY=0.5;entryDx=0;entryDy=0;" parent="1" source="YXyIy0PoRjPtZu4Xh4XD-4" target="YXyIy0PoRjPtZu4Xh4XD-5" edge="1">
          <mxGeometry relative="1" as="geometry" />
        </mxCell>
        <mxCell id="YXyIy0PoRjPtZu4Xh4XD-4" value="Applying Shannon-Nyquist Theorem" style="rounded=1;whiteSpace=wrap;html=1;absoluteArcSize=1;arcSize=14;strokeWidth=2;" parent="1" vertex="1">
          <mxGeometry x="470" y="180" width="180" height="80" as="geometry" />
        </mxCell>
        <mxCell id="YXyIy0PoRjPtZu4Xh4XD-5" value="Data-Driven QR sparse sensing" style="rounded=1;whiteSpace=wrap;html=1;absoluteArcSize=1;arcSize=14;strokeWidth=2;" parent="1" vertex="1">
          <mxGeometry x="700" y="180" width="180" height="80" as="geometry" />
        </mxCell>
        <mxCell id="YXyIy0PoRjPtZu4Xh4XD-15" style="edgeStyle=orthogonalEdgeStyle;rounded=0;orthogonalLoop=1;jettySize=auto;html=1;exitX=0.5;exitY=1;exitDx=0;exitDy=0;entryX=0.5;entryY=0;entryDx=0;entryDy=0;" parent="1" source="YXyIy0PoRjPtZu4Xh4XD-7" target="YXyIy0PoRjPtZu4Xh4XD-5" edge="1">
          <mxGeometry relative="1" as="geometry" />
        </mxCell>
        <mxCell id="YXyIy0PoRjPtZu4Xh4XD-7" value="Proper orthogonal Decomposition" style="rounded=1;whiteSpace=wrap;html=1;absoluteArcSize=1;arcSize=14;strokeWidth=2;" parent="1" vertex="1">
          <mxGeometry x="700" y="60" width="180" height="80" as="geometry" />
        </mxCell>
        <mxCell id="YXyIy0PoRjPtZu4Xh4XD-14" style="edgeStyle=orthogonalEdgeStyle;rounded=0;orthogonalLoop=1;jettySize=auto;html=1;exitX=0.5;exitY=1;exitDx=0;exitDy=0;entryX=0.5;entryY=0;entryDx=0;entryDy=0;" parent="1" source="YXyIy0PoRjPtZu4Xh4XD-5" target="VByHmfA631asAowZ6ET6-1" edge="1">
          <mxGeometry relative="1" as="geometry">
            <mxPoint x="790" y="330" as="targetPoint" />
            <mxPoint x="790" y="380" as="sourcePoint" />
          </mxGeometry>
        </mxCell>
        <mxCell id="VByHmfA631asAowZ6ET6-1" value="Remap with the actual sensor locations and drop the remaining sensors" style="rounded=1;whiteSpace=wrap;html=1;absoluteArcSize=1;arcSize=14;strokeWidth=2;" vertex="1" parent="1">
          <mxGeometry x="700" y="310" width="180" height="80" as="geometry" />
        </mxCell>
        <mxCell id="VByHmfA631asAowZ6ET6-2" value="END" style="strokeWidth=2;html=1;shape=mxgraph.flowchart.terminator;whiteSpace=wrap;" vertex="1" parent="1">
          <mxGeometry x="495" y="320" width="130" height="60" as="geometry" />
        </mxCell>
        <mxCell id="VByHmfA631asAowZ6ET6-3" style="edgeStyle=orthogonalEdgeStyle;rounded=0;orthogonalLoop=1;jettySize=auto;html=1;exitX=0;exitY=0.5;exitDx=0;exitDy=0;entryX=1;entryY=0.5;entryDx=0;entryDy=0;entryPerimeter=0;" edge="1" parent="1" source="VByHmfA631asAowZ6ET6-1" target="VByHmfA631asAowZ6ET6-2">
          <mxGeometry relative="1" as="geometry" />
        </mxCell>
      </root>
    </mxGraphModel>
  </diagram>
  <diagram id="-XWt_TtXAiZaCr-iOv5x" name="Page-3">
    <mxGraphModel dx="2140" dy="618" grid="1" gridSize="10" guides="1" tooltips="1" connect="1" arrows="1" fold="1" page="1" pageScale="1" pageWidth="850" pageHeight="1100" math="0" shadow="0">
      <root>
        <mxCell id="0" />
        <mxCell id="1" parent="0" />
        <mxCell id="bBRJLNCdM5mXQR5fsxlJ-1" style="edgeStyle=orthogonalEdgeStyle;rounded=0;orthogonalLoop=1;jettySize=auto;html=1;exitX=0.5;exitY=1;exitDx=0;exitDy=0;exitPerimeter=0;entryX=0.5;entryY=0;entryDx=0;entryDy=0;" edge="1" parent="1" source="Jc-CS8KwICCsV5VVoC7o-1" target="Jc-CS8KwICCsV5VVoC7o-2">
          <mxGeometry relative="1" as="geometry" />
        </mxCell>
        <mxCell id="Jc-CS8KwICCsV5VVoC7o-1" value="Start" style="strokeWidth=2;html=1;shape=mxgraph.flowchart.start_1;whiteSpace=wrap;" vertex="1" parent="1">
          <mxGeometry x="7.5" y="130" width="135" height="60" as="geometry" />
        </mxCell>
        <mxCell id="bBRJLNCdM5mXQR5fsxlJ-2" style="edgeStyle=orthogonalEdgeStyle;rounded=0;orthogonalLoop=1;jettySize=auto;html=1;exitX=1;exitY=0.5;exitDx=0;exitDy=0;" edge="1" parent="1" source="Jc-CS8KwICCsV5VVoC7o-2" target="Jc-CS8KwICCsV5VVoC7o-3">
          <mxGeometry relative="1" as="geometry" />
        </mxCell>
        <mxCell id="Jc-CS8KwICCsV5VVoC7o-2" value="Read the data from Reduced sensors" style="rounded=1;whiteSpace=wrap;html=1;absoluteArcSize=1;arcSize=14;strokeWidth=2;" vertex="1" parent="1">
          <mxGeometry x="-30" y="240" width="210" height="80" as="geometry" />
        </mxCell>
        <mxCell id="bBRJLNCdM5mXQR5fsxlJ-3" style="edgeStyle=orthogonalEdgeStyle;rounded=0;orthogonalLoop=1;jettySize=auto;html=1;exitX=1;exitY=0.5;exitDx=0;exitDy=0;entryX=0;entryY=0.5;entryDx=0;entryDy=0;" edge="1" parent="1" source="Jc-CS8KwICCsV5VVoC7o-3" target="Jc-CS8KwICCsV5VVoC7o-5">
          <mxGeometry relative="1" as="geometry" />
        </mxCell>
        <mxCell id="bBRJLNCdM5mXQR5fsxlJ-5" style="edgeStyle=orthogonalEdgeStyle;rounded=0;orthogonalLoop=1;jettySize=auto;html=1;exitX=0.5;exitY=1;exitDx=0;exitDy=0;entryX=0.5;entryY=0;entryDx=0;entryDy=0;" edge="1" parent="1" source="Jc-CS8KwICCsV5VVoC7o-3" target="Jc-CS8KwICCsV5VVoC7o-4">
          <mxGeometry relative="1" as="geometry" />
        </mxCell>
        <mxCell id="Jc-CS8KwICCsV5VVoC7o-3" value="With the reduced sensors Generate a Neural Network Model but predict all sensors data" style="rounded=1;whiteSpace=wrap;html=1;absoluteArcSize=1;arcSize=14;strokeWidth=2;" vertex="1" parent="1">
          <mxGeometry x="230" y="240" width="180" height="80" as="geometry" />
        </mxCell>
        <mxCell id="Jc-CS8KwICCsV5VVoC7o-4" value="Calcuate the error between predicted data and the actual data" style="rounded=1;whiteSpace=wrap;html=1;absoluteArcSize=1;arcSize=14;strokeWidth=2;" vertex="1" parent="1">
          <mxGeometry x="360" y="380" width="190" height="70" as="geometry" />
        </mxCell>
        <mxCell id="bBRJLNCdM5mXQR5fsxlJ-11" style="edgeStyle=orthogonalEdgeStyle;rounded=0;orthogonalLoop=1;jettySize=auto;html=1;exitX=1;exitY=0.5;exitDx=0;exitDy=0;entryX=0.5;entryY=0;entryDx=0;entryDy=0;" edge="1" parent="1" source="Jc-CS8KwICCsV5VVoC7o-5" target="Jc-CS8KwICCsV5VVoC7o-8">
          <mxGeometry relative="1" as="geometry" />
        </mxCell>
        <mxCell id="Jc-CS8KwICCsV5VVoC7o-5" value="With the predicted data reconstruct the heatmap video" style="rounded=1;whiteSpace=wrap;html=1;absoluteArcSize=1;arcSize=14;strokeWidth=2;" vertex="1" parent="1">
          <mxGeometry x="460" y="240" width="170" height="80" as="geometry" />
        </mxCell>
        <mxCell id="Jc-CS8KwICCsV5VVoC7o-6" value="End" style="strokeWidth=2;html=1;shape=mxgraph.flowchart.terminator;whiteSpace=wrap;" vertex="1" parent="1">
          <mxGeometry x="480" y="560" width="100" height="60" as="geometry" />
        </mxCell>
        <mxCell id="bBRJLNCdM5mXQR5fsxlJ-9" style="edgeStyle=orthogonalEdgeStyle;rounded=0;orthogonalLoop=1;jettySize=auto;html=1;exitX=0;exitY=0.5;exitDx=0;exitDy=0;exitPerimeter=0;entryX=0.25;entryY=1;entryDx=0;entryDy=0;" edge="1" parent="1" source="Jc-CS8KwICCsV5VVoC7o-7" target="Jc-CS8KwICCsV5VVoC7o-3">
          <mxGeometry relative="1" as="geometry" />
        </mxCell>
        <mxCell id="Jc-CS8KwICCsV5VVoC7o-7" value="If the overall and individual error rate is too low with is from 0 to 1 degree for temperature" style="strokeWidth=2;html=1;shape=mxgraph.flowchart.decision;whiteSpace=wrap;" vertex="1" parent="1">
          <mxGeometry x="228.75" y="500" width="182.5" height="180" as="geometry" />
        </mxCell>
        <mxCell id="Jc-CS8KwICCsV5VVoC7o-8" value="Calculate the overall similarity between the reconstructed and original heatmap videos" style="rounded=1;whiteSpace=wrap;html=1;absoluteArcSize=1;arcSize=14;strokeWidth=2;" vertex="1" parent="1">
          <mxGeometry x="610" y="380" width="190" height="70" as="geometry" />
        </mxCell>
        <mxCell id="bBRJLNCdM5mXQR5fsxlJ-6" style="edgeStyle=orthogonalEdgeStyle;rounded=0;orthogonalLoop=1;jettySize=auto;html=1;exitX=0.5;exitY=1;exitDx=0;exitDy=0;entryX=0.5;entryY=0;entryDx=0;entryDy=0;entryPerimeter=0;" edge="1" parent="1" source="Jc-CS8KwICCsV5VVoC7o-4" target="Jc-CS8KwICCsV5VVoC7o-7">
          <mxGeometry relative="1" as="geometry" />
        </mxCell>
        <mxCell id="bBRJLNCdM5mXQR5fsxlJ-7" style="edgeStyle=orthogonalEdgeStyle;rounded=0;orthogonalLoop=1;jettySize=auto;html=1;exitX=1;exitY=0.5;exitDx=0;exitDy=0;exitPerimeter=0;entryX=0;entryY=0.5;entryDx=0;entryDy=0;entryPerimeter=0;" edge="1" parent="1" source="Jc-CS8KwICCsV5VVoC7o-7" target="Jc-CS8KwICCsV5VVoC7o-6">
          <mxGeometry relative="1" as="geometry" />
        </mxCell>
        <mxCell id="bBRJLNCdM5mXQR5fsxlJ-8" value="YES" style="text;html=1;align=center;verticalAlign=middle;resizable=0;points=[];autosize=1;strokeColor=none;fillColor=none;" vertex="1" parent="1">
          <mxGeometry x="400" y="560" width="50" height="30" as="geometry" />
        </mxCell>
        <mxCell id="bBRJLNCdM5mXQR5fsxlJ-10" value="NO" style="text;html=1;align=center;verticalAlign=middle;resizable=0;points=[];autosize=1;strokeColor=none;fillColor=none;" vertex="1" parent="1">
          <mxGeometry x="200" y="535" width="40" height="30" as="geometry" />
        </mxCell>
      </root>
    </mxGraphModel>
  </diagram>
</mxfile>
